<?xml version="1.0" encoding="utf-8"?>
<!-- Generator: Adobe Illustrator 16.0.2, SVG Export Plug-In . SVG Version: 6.00 Build 0)  -->
<!DOCTYPE svg PUBLIC "-//W3C//DTD SVG 1.1//EN" "http://www.w3.org/Graphics/SVG/1.1/DTD/svg11.dtd">
<svg version="1.1" id="Layer_2" xmlns="http://www.w3.org/2000/svg" xmlns:xlink="http://www.w3.org/1999/xlink" x="0px" y="0px"
	 width="1520.922px" height="837.063px" viewBox="0 0 1520.922 837.063" enable-background="new 0 0 1520.922 837.063"
	 xml:space="preserve">
<g opacity="0.65">
	<path fill="#FFFFFF" d="M478.886,251.123c4.253-20.415,8.507-43.383,5.956-61.246c-2.553-17.012-9.357-28.923-23.819-28.923
		c-23.818,0.851-36.579,25.52-44.232,62.098c-4.254,21.267-0.851,43.382,8.506,67.202c9.357,23.818,20.415,48.486,33.176,74.856
		c16.162,31.474,28.921,63.799,39.13,95.271c9.357,31.478,13.61,63.801,5.954,97.827c-9.357,41.682-22.967,79.961-49.338,109.734
		c-26.37,29.771-60.395,47.636-111.435,47.636c-58.694,0-87.618-22.118-98.675-56.142c-12.761-34.028-5.955-78.261,3.402-125.897
		l91.871-8.506c-5.955,26.369-10.208,52.737-7.656,72.304c2.553,20.416,9.357,34.025,28.922,34.025
		c27.221,0,42.533-28.921,51.89-68.901c4.254-20.414,0-44.234-9.356-68.903c-2.553-5.953-5.104-12.758-7.656-18.714
		c-2.552-5.957-5.104-12.759-7.656-18.715c-5.954-12.76-12.759-26.37-19.564-40.831c-6.806-14.461-13.61-28.922-20.415-45.084
		c-14.462-32.325-22.117-64.65-24.669-96.974c-2.552-16.164,0-33.176,3.402-50.189c6.805-34.026,22.117-70.604,48.487-98.676
		c24.668-27.22,58.694-46.784,102.078-47.635c56.994-0.851,83.363,22.117,94.422,55.292c10.208,34.026,6.805,75.708-0.85,110.584
		L478.886,251.123z"/>
	<path fill="#FFFFFF" d="M654.113,83.545h91.871c39.981,0,77.411,9.357,102.079,39.131c24.669,29.772,35.726,76.559,19.564,148.012
		c-16.162,71.456-45.935,117.391-82.512,147.164c-36.578,29.771-79.112,40.832-119.093,40.832l-52.739,250.09h-91.871
		L654.113,83.545z M685.589,365.11c28.071,0,47.636-5.104,60.395-19.564c13.61-13.61,20.416-36.578,28.071-71.455
		c7.656-34.877,10.21-58.695,3.403-74.856c-6.806-14.462-23.818-22.117-51.891-22.117L685.589,365.11z"/>
	<path fill="#FFFFFF" d="M820.837,708.773L953.538,83.545h72.307c85.065,0,125.894,17.014,142.056,64.65
		c13.613,47.636,0.854,125.046-25.52,248.39c-26.365,122.492-45.936,199.903-79.961,247.541
		c-34.875,47.636-84.213,64.648-169.278,64.648H820.837z M931.421,616.903c31.476,0,50.19-3.401,66.353-34.026
		c14.461-28.069,26.367-78.258,34.875-119.092c4.255-19.564,8.507-42.531,14.46-68.05c5.106-25.52,10.211-48.488,14.464-68.903
		c8.505-39.981,18.713-87.619,15.309-118.241c-2.552-29.774-19.562-33.177-51.036-33.177L931.421,616.903z"/>
	<path fill="#FFFFFF" d="M1335.48,283.448l0.852,5.956h1.7l4.253-5.956l88.468-199.903h90.169l-170.13,358.975l-56.142,266.254
		h-91.871l56.144-266.254l-17.016-358.975h90.169L1335.48,283.448z"/>
</g>
<g opacity="0.25">
	<path fill="#FFFFFF" d="M460.09,161.018c-23.215,1.458-35.747,25.941-43.301,62.035c-1.52,7.594-2.045,15.298-1.689,23.147
		l38.69-3.583C459.377,217.166,462.67,188.097,460.09,161.018z"/>
	<path fill="#FFFFFF" d="M244.107,659.438c-3.324-8.864-5.295-18.436-6.266-28.566c-15.108-2.537-20.805-15.307-23.083-33.533
		c-2.553-19.563,1.701-45.935,7.654-72.304l-91.87,8.506c-9.355,47.637-16.162,91.869-3.402,125.897
		c11.059,34.023,39.98,56.142,98.676,56.142c22.925,0,42.396-3.63,59.304-10.3C263.51,695.606,250.666,679.616,244.107,659.438z"/>
	<path fill="#FFFFFF" d="M230.919,370.215c6.805,16.163,13.611,30.623,20.417,45.084c6.803,14.46,13.609,28.071,19.563,40.832
		c2.552,5.955,5.104,12.76,7.657,18.714c2.55,5.956,5.102,12.761,7.655,18.714c4.605,12.143,7.964,24.075,9.691,35.498l43.476-4.022
		c-5.955,26.369-10.208,52.737-7.656,72.304c2.553,20.416,9.357,34.025,28.922,34.025c0.417,0,0.822-0.027,1.234-0.04
		c11.304-22.197,18.844-46.986,24.71-73.114c7.655-34.026,3.401-66.35-5.955-97.824c-10.208-31.476-22.968-63.8-39.131-95.274
		c-12.758-26.37-23.817-51.039-33.176-74.856c-9.355-23.819-12.759-45.935-8.506-67.202c7.657-36.579,20.417-61.247,44.234-62.098
		c1.631,0,3.153,0.173,4.595,0.466c7.17-13.232,15.916-25.824,26.456-37.044c12.87-14.199,28.308-26.281,46.27-34.744
		c-14.796-8.53-34.665-13.287-61.157-12.892c-43.384,0.851-77.411,20.416-102.079,47.635c-26.37,28.072-41.682,64.65-48.488,98.676
		c-3.401,17.013-5.954,34.025-3.401,50.189C208.803,305.564,216.458,337.89,230.919,370.215z"/>
</g>
<g opacity="0.1">
	<path fill="#FFFFFF" d="M343.121,160.967c-0.084,0-0.163-0.012-0.248-0.012c-23.817,0.85-36.576,25.52-44.234,62.097
		c-1.525,7.629-2.049,15.37-1.684,23.256l39.87-3.692C342.414,217.15,345.709,188.063,343.121,160.967z"/>
	<path fill="#FFFFFF" d="M125.958,659.439c-3.347-8.925-5.32-18.567-6.281-28.772c-14.226-2.997-19.668-15.587-21.886-33.329
		c-2.552-19.563,1.701-45.935,7.656-72.304l-91.871,8.506c-9.356,47.637-16.162,91.869-3.401,125.897
		c11.059,34.023,39.98,56.142,98.675,56.142c22.65,0,41.936-3.533,58.703-10.049C145.595,695.882,132.574,679.796,125.958,659.439z"
		/>
	<path fill="#FFFFFF" d="M113.953,370.215c6.806,16.163,13.611,30.623,20.417,45.084c6.804,14.46,13.609,28.071,19.563,40.832
		c2.553,5.955,5.105,12.76,7.657,18.714c2.55,5.956,5.104,12.761,7.655,18.714c4.591,12.104,7.943,24.001,9.675,35.395l42.309-3.918
		c-5.955,26.368-10.208,52.739-7.656,72.303c2.279,18.227,7.976,30.999,23.084,33.537c0.399,4.166,0.979,8.23,1.741,12.198
		c15.03-25.05,24.298-54.021,31.224-84.864c7.655-34.026,3.402-66.35-5.955-97.824c-10.208-31.476-22.966-63.8-39.131-95.274
		c-12.757-26.37-23.817-51.039-33.175-74.856c-9.356-23.819-12.76-45.935-8.507-67.202c7.657-36.579,20.417-61.247,44.234-62.098
		c1.232,0,2.388,0.118,3.51,0.286c7.151-13.165,15.865-25.693,26.357-36.862c13.023-14.37,28.68-26.567,46.918-35.043
		c-14.742-8.341-34.444-12.986-60.622-12.594c-43.385,0.851-77.411,20.416-102.08,47.635c-26.369,28.072-41.682,64.65-48.488,98.676
		c-3.401,17.013-5.954,34.025-3.401,50.189C91.837,305.564,99.492,337.89,113.953,370.215z"/>
</g>
</svg>
