<?xml version="1.0" encoding="utf-8"?>
<!-- Generator: Adobe Illustrator 16.0.2, SVG Export Plug-In . SVG Version: 6.00 Build 0)  -->
<!DOCTYPE svg PUBLIC "-//W3C//DTD SVG 1.1//EN" "http://www.w3.org/Graphics/SVG/1.1/DTD/svg11.dtd">
<svg version="1.1" id="Layer_4" xmlns="http://www.w3.org/2000/svg" xmlns:xlink="http://www.w3.org/1999/xlink" x="0px" y="0px"
     width="1520.922px" height="837.062px" viewBox="0 0 1520.922 837.062" enable-background="new 0 0 1520.922 837.062"
     xml:space="preserve">
<g id="Layer_2" display="none">
    <g display="inline" opacity="0.7">
        <path fill="#FFFFFF" d="M984.799,730.632h13.583v79.878h17.986v12.58h-31.57L984.799,730.632L984.799,730.632z"/>
        <path fill="#FFFFFF" d="M1021.908,730.632h31.07v13.962h-17.486v24.279h12.58v14.844h-12.58v25.407h17.486v13.966h-31.07V730.632z
            "/>
        <path fill="#FFFFFF" d="M1057.004,823.09l13.964-92.458h16.604l13.962,92.458h-13.208l-2.515-18.868h-13.083l-2.516,18.868
            H1057.004z M1080.022,760.697l-0.377-2.389h-0.753l-0.378,2.389l-3.899,29.183h9.307L1080.022,760.697z"/>
        <path fill="#FFFFFF" d="M1132.103,823.09l-7.046-38.995h-3.644v38.995h-13.587v-92.458h13.587
            c16.225,0,23.145,9.184,23.145,26.669c0,9.184-2.391,17.486-7.549,21.007l8.68,44.782H1132.103z M1121.41,771.515
            c1.885,0,4.403-0.249,6.415-2.011c2.014-1.762,3.65-5.16,3.65-11.698c0-6.544-1.637-10.066-3.65-11.827
            c-2.012-1.761-4.528-1.888-6.415-1.888V771.515z"/>
        <path fill="#FFFFFF" d="M1167.577,774.913l-1.131-4.275h-0.753v52.452h-12.453v-92.458h12.074l13.208,48.178l1.134,4.277h0.756
            v-52.455h12.452v92.458h-12.078L1167.577,774.913z"/>
        <path fill="#FFFFFF" d="M1202.925,730.632h13.586v92.458h-13.586V730.632z"/>
        <path fill="#FFFFFF" d="M1240.915,774.913l-1.133-4.275h-0.755v52.452h-12.453v-92.458h12.078l13.207,48.178l1.134,4.277h0.755
            v-52.455h12.451v92.458h-12.075L1240.915,774.913z"/>
        <path fill="#FFFFFF" d="M1298.025,763.842v-14.215c0-2.514-0.503-4.275-1.762-5.786c-0.628-0.632-1.636-1.004-2.765-1.004
            c-2.393,0-3.526,1.762-4.027,3.395c-0.379,1.004-0.499,2.14-0.499,3.396v55.601c0,2.646,0.626,4.406,1.883,5.789
            c0.628,0.63,1.508,1.005,2.644,1.005c2.392,0,3.523-1.512,4.023-3.395c0.38-0.879,0.503-2.015,0.503-3.399v-16.726h-5.41v-11.448
            h18.996v46.036h-8.051l-1.634-4.401c-2.516,3.146-6.165,5.409-10.566,5.409c-4.403,0-7.422-1.134-9.687-3.145
            c-2.265-1.887-3.773-4.279-4.779-6.792c-1.132-2.896-1.635-6.292-1.512-10.067v-54.467c0.13-3.646,0.882-7.044,2.266-9.934
            c1.132-2.52,2.769-5.033,5.286-6.921c2.512-1.887,6.039-3.145,10.564-3.145c4.527,0,7.924,1.258,10.441,3.145
            c2.516,1.884,4.277,4.401,5.409,6.921c1.382,2.89,2.138,6.288,2.262,9.934v14.215H1298.025z"/>
        <path fill="#FFFFFF" d="M1340.921,730.632h13.586v79.878h17.988v12.58h-31.574V730.632z"/>
        <path fill="#FFFFFF" d="M1375.511,823.09l13.966-92.458h16.605l13.96,92.458h-13.208l-2.513-18.868h-13.084l-2.516,18.868
            H1375.511z M1398.532,760.697l-0.377-2.389h-0.755l-0.377,2.389l-3.899,29.183h9.308L1398.532,760.697z"/>
        <path fill="#FFFFFF" d="M1426.334,823.09v-92.458h11.951c8.049,0,14.339,1.512,18.486,5.409c4.152,3.899,6.291,9.938,6.291,19.123
            c0,4.401-0.378,7.67-1.763,10.692c-1.383,3.017-3.521,5.533-6.665,8.426c3.396,1.889,5.912,5.411,7.927,11.324
            c1.002,2.892,1.508,6.666,1.508,11.316c0,6.921-1.258,13.082-4.403,17.866c-3.146,4.78-8.552,7.925-16.604,8.301H1426.334z
             M1439.921,768.748c1.131,0,3.771,0.125,6.036-1.384c2.266-1.508,4.026-4.529,4.026-10.943c0-6.417-1.761-9.435-4.026-10.946
            c-2.265-1.51-4.905-1.384-6.036-1.384V768.748z M1439.921,809.631c1.131,0,3.771,0.251,6.036-1.383
            c2.266-1.636,4.026-5.285,4.026-12.829c0-7.546-1.761-11.197-4.026-12.831c-2.265-1.638-4.905-1.385-6.036-1.385V809.631z"/>
    </g>
</g>
<g id="Layer_1_1_">
    <g>
        <path opacity="0.4" fill="#FEFEFD" enable-background="new    " d="M609.858,137.785c-24.353-5.781-48.525-4.951-72.534,1.957
            c-56.657,16.295-98.422,69.563-101.622,129.625c-3.087,57.92,32.436,114.479,85.618,136.308c0.249,1.001,0.494,1.998,0.742,2.999
            c-37.314,63.481-19.791,144.815,40.457,187.75c60.242,42.935,142.46,32.407,191.744-24.542l1.268,0.091l1.261-0.15
            c36.033,40.771,81.299,57.322,134.6,47.974c92.273-16.193,147.765-120.317,98.125-209.985c2.627-1.767,5.182-3.649,7.893-5.282
            c51.194-30.814,76.602-75.47,73.927-135.794c-3.757-84.628-91.096-149.421-173.32-128.202c-0.446-0.347-0.949-0.47-1.508-0.363
            C886.986,47.356,815.006-4.203,726.103,8.915c-61.857,9.13-110.978,66.107-114.394,128.115
            C611.066,137.225,610.452,137.476,609.858,137.785z"/>
        <path opacity="0.8" fill="#FDFDFC" enable-background="new    " d="M565.186,419.068c0.021-19.089,0.045-38.177,0.068-57.271
            c0.154-44.878,0.242-89.764,0.496-134.639c0.146-25.247,14.225-39.231,39.678-39.827c3.161-0.074,6.317-0.349,9.479-0.527
            c24.623,0.015,49.241,0.031,73.861,0.053c43.636-0.01,87.28-0.028,130.92-0.039c24.368,0.341,48.739,0.678,73.111,1.016
            c20.318,8.418,27.442,24.044,27.092,45.426c-0.621,38.096,0.091,76.214,0.248,114.32c0.019,24.728,0.039,49.456,0.057,74.182
            c-4.426,32.87-21.438,43.986-56.088,41.094c-24.713-2.063-49.769-0.037-74.676,0.167c-18.67,5.488-34.901,16.289-52.513,24.085
            c-5.262,2.327-10.377,4.978-15.564,7.487c-29.239,14.616-58.476,29.22-87.716,43.829c-4.454,2.154-8.911,4.314-13.362,6.474
            c-7.886,1.107-13.492,8.559-22.014,7.903c1.582-12.26,2.839-17.418,6.812-32.736c7.772-18.608,8.571-25.204,12.808-37.996
            c6.333-19.129,6.096-19.205-14.091-19.704C578.303,461.728,561.196,442.547,565.186,419.068z"/>
        <g>
            <path opacity="0.2" fill="#FFFFFF" enable-background="new    " d="M736.923,487.104c-5.263,2.327-10.379,4.978-15.563,7.481
                c1.91,9.311,3.823,18.617,5.736,27.925c7.14,17.511,15.453,34.376,27.169,49.371l1.267,0.085l1.262-0.147
                c23.926-32.358,35.223-68.497,32.642-108.808C770.767,468.505,754.535,479.304,736.923,487.104z"/>
            <path opacity="0.2" fill="#FFFFFF" enable-background="new    " d="M660.97,157.136c-15.795-8.241-31.437-16.844-49.257-20.11
                c-0.644,0.2-1.26,0.451-1.854,0.755c-0.229,2.741-0.456,5.476-0.686,8.216c0.415,7.191,0.83,14.383,1.245,21.575
                c0.18,0.875,0.359,1.751,0.54,2.623c1.316,5.535,2.635,11.07,3.951,16.604c24.623,0.016,49.243,0.031,73.863,0.053
                C684.057,172.69,669.288,167.934,660.97,157.136z"/>
            <path opacity="0.2" fill="#FFFFFF" enable-background="new    " d="M852.384,156.957c-12.777,7.9-23.52,18.026-32.696,29.862
                c24.368,0.336,48.739,0.678,73.107,1.016c1.692-7.553,3.384-15.097,5.07-22.647c0.044-8.221,0.098-16.436,0.146-24.656
                c-0.445-0.347-0.951-0.47-1.509-0.363C880.466,142.255,866.92,150.916,852.384,156.957z"/>
            <path opacity="0.2" fill="#FFFFFF" enable-background="new    " d="M530.557,391.855c-1.592,5.604-4.952,10.021-9.237,13.818
                c0.249,1.001,0.494,1.998,0.742,3.004c10.141,3.151,20.28,6.302,30.418,9.452c4.236,0.314,8.469,0.625,12.705,0.941
                c0.021-19.092,0.045-38.18,0.068-57.272C550.734,368.406,542.825,382.65,530.557,391.855z"/>
            <path opacity="0.2" fill="#FFFFFF" enable-background="new    " d="M982.171,395.885c-8.323-9.882-17.435-19.095-26.23-28.58
                c-12.09-6.292-22.097-16.36-35.8-19.726c0.019,24.724,0.041,49.453,0.057,74.178c23.901,1.994,46.724-2.315,68.672-11.747
                C989.587,403.936,985.447,399.771,982.171,395.885z"/>
        </g>
        <g>
            <path opacity="0.6" fill="#FFFFFF" enable-background="new    " d="M598.562,552.663c-0.099,0.019-0.201,0.036-0.302,0.051
                c0.006,0.028,0.006,0.055,0.011,0.08L598.562,552.663z"/>
        </g>
        <path fill="#D66D1C" d="M598.585,555.516c-0.008-0.948-0.017-1.9-0.023-2.853l-0.291,0.131"/>
        <path fill="#D66D1C" d="M620.28,544.894"/>
        <path fill="#FDFDFC" d="M598.562,552.663c0.007,0.952,0.015,1.904,0.023,2.853c-0.657-0.851-1.315-1.692-1.976-2.543
            C597.261,552.871,597.911,552.769,598.562,552.663z"/>
        <path fill="#4B86C8" d="M610.955,170.199c-0.813-0.295-1.622-0.594-2.433-0.89c0.629-0.575,1.254-1.151,1.887-1.732
            C610.597,168.448,610.774,169.325,610.955,170.199z"/>
    </g>
    <path opacity="0.7" fill="#FFFFFF" enable-background="new    " d="M354.431,795.098l-30.95-114.793l-31.345,114.793
        c-2.436,8.71-4.373,14.958-5.811,18.746c-1.438,3.785-3.94,7.179-7.508,10.183c-3.573,3.006-8.313,4.51-14.234,4.51
        c-4.79,0-8.729-0.895-11.82-2.679c-3.088-1.785-5.592-4.311-7.506-7.576c-1.918-3.265-3.483-7.136-4.705-11.624
        c-1.22-4.482-2.307-8.643-3.265-12.474L205.42,665.284c-1.918-7.487-2.874-13.189-2.874-17.108c0-4.961,1.742-9.141,5.225-12.536
        c3.484-3.4,7.79-5.093,12.93-5.093c7.051,0,11.796,2.263,14.234,6.792c2.44,4.524,4.573,11.099,6.401,19.718l25.074,111.795
        l28.077-104.61c2.09-8.012,3.962-14.103,5.618-18.285c1.652-4.178,4.356-7.793,8.097-10.842c3.74-3.048,8.833-4.572,15.278-4.572
        c6.531,0,11.602,1.587,15.213,4.767c3.613,3.18,6.118,6.638,7.509,10.387c1.395,3.744,3.266,9.924,5.618,18.541l28.34,104.609
        l25.078-111.792c1.22-5.83,2.371-10.4,3.458-13.711c1.088-3.312,2.958-6.271,5.618-8.886c2.654-2.609,6.507-3.915,11.554-3.915
        c5.049,0,9.338,1.677,12.865,5.03c3.527,3.352,5.288,7.552,5.288,12.599c0,3.573-0.958,9.273-2.875,17.11l-31.865,128.902
        c-2.176,8.704-3.985,15.081-5.42,19.131c-1.436,4.048-3.876,7.603-7.314,10.644c-3.438,3.05-8.294,4.571-14.561,4.571
        c-5.924,0-10.667-1.474-14.235-4.44c-3.574-2.963-6.052-6.29-7.445-9.987C358.918,810.4,356.958,804.069,354.431,795.098z"/>
    <path opacity="0.7" fill="#FFFFFF" enable-background="new    " d="M560.125,764.8h-69.74c0.086,8.099,1.719,15.237,4.898,21.419
        c3.18,6.186,7.4,10.843,12.669,13.979c5.269,3.134,11.082,4.704,17.435,4.704c4.265,0,8.164-0.505,11.688-1.502
        c3.524-1,6.944-2.566,10.253-4.704c3.31-2.135,6.354-4.42,9.14-6.857c2.786-2.436,6.4-5.747,10.84-9.927
        c1.831-1.57,4.442-2.352,7.838-2.352c3.659,0,6.618,0.998,8.883,3.003c2.265,2.006,3.397,4.832,3.397,8.49
        c0,3.221-1.262,6.986-3.788,11.298c-2.525,4.307-6.333,8.442-11.429,12.405c-5.094,3.959-11.492,7.251-19.198,9.86
        c-7.708,2.612-16.566,3.92-26.577,3.92c-22.899,0-40.7-6.534-53.415-19.594c-12.711-13.058-19.07-30.775-19.07-53.15
        c0-10.533,1.569-20.309,4.705-29.317c3.135-9.01,7.705-16.737,13.712-23.182c6.006-6.443,13.407-11.383,22.203-14.82
        c8.793-3.439,18.544-5.163,29.255-5.163c13.93,0,25.881,2.94,35.848,8.815c9.97,5.876,17.437,13.474,22.398,22.793
        c4.962,9.318,7.446,18.807,7.446,28.471c0,8.969-2.571,14.776-7.708,17.434C576.666,763.475,569.442,764.8,560.125,764.8z
         M490.385,744.558h64.646c-0.873-12.188-4.16-21.309-9.859-27.358c-5.705-6.053-13.212-9.078-22.528-9.078
        c-8.882,0-16.173,3.067-21.875,9.206C495.065,723.466,491.607,732.543,490.385,744.558z"/>
    <path opacity="0.7" fill="#FFFFFF" enable-background="new    " d="M648.931,650.92v54.46c6.704-6.966,13.537-12.298,20.502-16
        c6.965-3.698,15.587-5.547,25.858-5.547c11.841,0,22.224,2.807,31.149,8.42c8.923,5.618,15.848,13.755,20.764,24.423
        c4.918,10.665,7.381,23.313,7.381,37.939c0,10.797-1.371,20.699-4.118,29.711c-2.743,9.01-6.722,16.827-11.948,23.442
        c-5.225,6.618-11.557,11.731-19.002,15.345c-7.443,3.615-15.65,5.423-24.617,5.423c-5.485,0-10.643-0.654-15.478-1.962
        c-4.833-1.304-8.946-3.025-12.341-5.158c-3.397-2.131-6.29-4.331-8.687-6.595c-2.396-2.266-5.549-5.66-9.465-10.189v3.529
        c0,6.703-1.614,11.777-4.83,15.216c-3.222,3.438-7.313,5.161-12.278,5.161c-5.05,0-9.078-1.721-12.082-5.161
        c-3.001-3.438-4.504-8.513-4.504-15.216V652.486c0-7.227,1.458-12.689,4.375-16.39c2.915-3.701,6.987-5.55,12.21-5.55
        c5.488,0,9.709,1.762,12.67,5.285C647.452,639.36,648.931,644.39,648.931,650.92z M650.629,756.834
        c0,14.197,3.244,25.099,9.729,32.717c6.489,7.619,14.998,11.429,25.533,11.429c8.966,0,16.694-3.896,23.18-11.688
        c6.486-7.792,9.73-18.957,9.73-33.494c0-9.403-1.353-17.501-4.049-24.296c-2.698-6.79-6.528-12.034-11.491-15.735
        c-4.962-3.699-10.754-5.55-17.37-5.55c-6.792,0-12.844,1.851-18.155,5.55c-5.308,3.701-9.488,9.056-12.537,16.065
        C652.154,738.833,650.629,747.169,650.629,756.834z"/>
    <path opacity="0.7" fill="#FFFFFF" enable-background="new    " d="M827.641,743.382h-13.583v61.514
        c0,8.094-1.783,14.06-5.356,17.894c-3.567,3.827-8.223,5.747-13.972,5.747c-6.181,0-10.972-2.005-14.365-6.011
        c-3.392-4.001-5.094-9.88-5.094-17.63V657.582c0-8.36,1.872-14.412,5.619-18.155c3.742-3.741,9.797-5.616,18.154-5.616h63.078
        c8.707,0,16.152,0.368,22.334,1.11c6.181,0.74,11.754,2.242,16.716,4.504c6.009,2.525,11.32,6.137,15.934,10.843
        c4.615,4.701,8.117,10.161,10.516,16.389c2.389,6.226,3.588,12.822,3.588,19.788c0,14.276-4.024,25.68-12.08,34.216
        c-8.054,8.532-20.26,14.582-36.63,18.151c6.877,3.661,13.448,9.059,19.72,16.198c6.267,7.141,11.862,14.736,16.778,22.79
        c4.92,8.057,8.752,15.321,11.493,21.808c2.74,6.488,4.117,10.948,4.117,13.388c0,2.523-0.807,5.03-2.418,7.509
        c-1.61,2.48-3.806,4.441-6.594,5.874c-2.787,1.438-6.005,2.158-9.665,2.158c-4.355,0-8.009-1.025-10.973-3.071
        c-2.96-2.05-5.505-4.635-7.636-7.771c-2.136-3.136-5.034-7.75-8.685-13.845l-15.544-25.856
        c-5.569-9.491-10.555-16.719-14.952-21.681c-4.396-4.963-8.86-8.356-13.384-10.185
        C840.229,744.299,834.518,743.382,827.641,743.382z M849.842,662.935h-35.784v52.629h34.741c9.314,0,17.147-0.804,23.508-2.414
        c6.355-1.611,11.209-4.354,14.563-8.225c3.35-3.872,5.027-9.211,5.027-16.002c0-5.309-1.35-9.991-4.049-14.038
        c-2.699-4.05-6.443-7.074-11.229-9.077C872.088,663.896,863.164,662.935,849.842,662.935z"/>
    <path opacity="0.7" fill="#FFFFFF" enable-background="new    " d="M1078.913,665.808h-42.317v139.088
        c0,8.01-1.783,13.953-5.354,17.825c-3.567,3.875-8.186,5.815-13.845,5.815c-5.748,0-10.426-1.962-14.04-5.877
        c-3.612-3.917-5.419-9.838-5.419-17.764V665.808h-42.313c-6.617,0-11.539-1.455-14.761-4.376c-3.216-2.914-4.83-6.768-4.83-11.555
        c0-4.962,1.678-8.883,5.026-11.754c3.356-2.874,8.208-4.31,14.564-4.31h123.288c6.702,0,11.688,1.482,14.954,4.439
        c3.261,2.965,4.895,6.838,4.895,11.624c0,4.791-1.653,8.644-4.961,11.555C1090.493,664.353,1085.531,665.808,1078.913,665.808z"/>
    <path opacity="0.7" fill="#FFFFFF" enable-background="new    " d="M1278.207,764.8c0,6.095-1.502,12.692-4.505,19.789
        c-3.005,7.095-7.728,14.058-14.172,20.893c-6.444,6.836-14.672,12.386-24.682,16.655c-10.01,4.269-21.679,6.401-35.003,6.401
        c-10.098,0-19.281-0.958-27.557-2.871c-8.274-1.913-15.782-4.901-22.528-8.944c-6.749-4.051-12.95-9.386-18.611-16.001
        c-5.053-6.008-9.36-12.735-12.933-20.178c-3.567-7.443-6.241-15.388-8.031-23.835c-1.786-8.451-2.677-17.413-2.677-26.902
        c0-15.411,2.244-29.212,6.727-41.398c4.481-12.191,10.903-22.616,19.263-31.281c8.357-8.663,18.153-15.261,29.384-19.786
        c11.231-4.529,23.205-6.794,35.919-6.794c15.497,0,29.297,3.09,41.396,9.271c12.103,6.184,21.377,13.822,27.816,22.925
        c6.443,9.099,9.667,17.696,9.667,25.792c0,4.442-1.57,8.357-4.702,11.756c-3.137,3.395-6.92,5.092-11.363,5.092
        c-4.964,0-8.683-1.176-11.163-3.526c-2.486-2.354-5.251-6.4-8.298-12.148c-5.049-9.485-10.993-16.581-17.825-21.285
        c-6.835-4.705-15.261-7.054-25.27-7.054c-15.932,0-28.625,6.052-38.068,18.158c-9.447,12.101-14.172,29.296-14.172,51.586
        c0,14.887,2.09,27.272,6.268,37.157c4.18,9.879,10.101,17.257,17.764,22.135c7.66,4.875,16.628,7.313,26.9,7.313
        c11.146,0,20.571-2.767,28.274-8.296c7.706-5.53,13.52-13.645,17.436-24.354c1.656-5.055,3.699-9.164,6.137-12.343
        c2.44-3.181,6.355-4.767,11.756-4.767c4.613,0,8.577,1.609,11.885,4.829C1276.547,756.008,1278.207,760.013,1278.207,764.8z"/>
</g>
</svg>
