<?xml version="1.0" encoding="utf-8"?>
<!-- Generator: Adobe Illustrator 16.0.2, SVG Export Plug-In . SVG Version: 6.00 Build 0)  -->
<!DOCTYPE svg PUBLIC "-//W3C//DTD SVG 1.1//EN" "http://www.w3.org/Graphics/SVG/1.1/DTD/svg11.dtd">
<svg version="1.1" id="Layer_2" xmlns="http://www.w3.org/2000/svg" xmlns:xlink="http://www.w3.org/1999/xlink" x="0px" y="0px"
	 width="1520.922px" height="837.062px" viewBox="0 0 1520.922 837.062" enable-background="new 0 0 1520.922 837.062"
	 xml:space="preserve">
<g>
	<path opacity="0.6" fill="#FFFFFF" enable-background="new    " d="M759.836,488.007c-0.958-0.372-1.896-0.826-2.883-1.099
		c-33.645-9.328-67.295-18.641-100.945-27.956c-11.791-3.263-23.582-6.531-35.37-9.802c-0.452-0.126-0.89-0.295-1.395-0.459
		c-0.451-5.218-0.885-10.42-1.355-15.618c-0.485-5.361-1.022-10.72-1.502-16.081c-0.471-5.26-0.882-10.521-1.35-15.781
		c-0.482-5.412-1.014-10.824-1.499-16.24c-0.466-5.205-0.891-10.413-1.355-15.62c-0.486-5.468-1.002-10.935-1.498-16.4
		c-0.352-3.889-0.683-7.782-1.035-11.672c-0.509-5.626-1.035-11.25-1.539-16.876c-0.349-3.892-0.658-7.787-1.005-11.679
		c-0.502-5.624-1.029-11.248-1.533-16.872c-0.348-3.892-0.663-7.786-1.009-11.677c-0.502-5.625-1.034-11.249-1.529-16.875
		c-0.462-5.26-0.875-10.523-1.344-15.783c-0.482-5.415-1.01-10.825-1.502-16.24c-0.354-3.891-0.677-7.784-1.025-11.675
		c-0.501-5.625-1.022-11.25-1.519-16.876c-0.358-4.049-0.67-8.103-1.035-12.15c-0.487-5.415-1.019-10.826-1.507-16.239
		c-0.361-3.997-0.672-7.998-1.028-11.995c-0.493-5.52-1.016-11.038-1.511-16.558c-0.354-3.944-0.676-7.89-1.028-11.835
		c-0.498-5.572-1.019-11.143-1.513-16.717c-0.358-4.048-0.684-8.1-1.036-12.148c-0.369-4.253-0.751-8.507-1.14-12.882
		c115.114,0,230.084,0,345.224,0c-0.308,3.695-0.599,7.312-0.918,10.925c-0.371,4.208-0.768,8.411-1.152,12.617
		c-0.503,5.466-1.005,10.934-1.492,16.401c-0.362,4.05-0.693,8.101-1.055,12.151c-0.489,5.467-1.005,10.932-1.493,16.397
		c-0.357,3.997-0.688,7.995-1.046,11.993c-0.488,5.466-0.999,10.933-1.488,16.398c-0.362,4.049-0.693,8.102-1.055,12.15
		c-0.488,5.468-1.005,10.934-1.495,16.401c-0.357,3.998-0.688,7.999-1.046,11.996c-0.493,5.52-1.007,11.036-1.501,16.556
		c-0.354,3.944-0.685,7.89-1.038,11.833c-0.493,5.52-1.007,11.038-1.499,16.557c-0.355,3.996-0.687,7.994-1.044,11.991
		c-0.495,5.521-1.015,11.038-1.503,16.558c-0.363,4.104-0.683,8.21-1.049,12.313c-0.471,5.31-0.979,10.617-1.454,15.929
		c-0.372,4.153-0.712,8.311-1.082,12.463c-0.482,5.364-0.988,10.722-1.471,16.082c-0.366,4.101-0.704,8.206-1.07,12.308
		c-0.486,5.413-0.992,10.827-1.479,16.239c-0.364,4.048-0.7,8.102-1.062,12.152c-0.482,5.416-0.984,10.83-1.473,16.243
		c-0.358,3.994-0.713,7.992-1.06,11.988c-0.438,5.051-0.831,10.105-1.349,15.147c-0.042,0.427-0.83,0.972-1.37,1.127
		c-5.733,1.629-11.484,3.191-17.23,4.775c-38.683,10.684-77.371,21.367-116.051,32.066c-2.213,0.612-4.384,1.36-6.576,2.048
		C760.26,488.007,760.048,488.007,759.836,488.007z M813.215,299.063c0.103,0.405,0.188,0.559,0.173,0.706
		c-0.424,4.893-0.846,9.787-1.295,14.68c-0.597,6.522-1.241,13.04-1.822,19.563c-0.577,6.473-1.103,12.949-1.646,19.424
		c-0.092,1.097-0.506,1.729-1.729,2.055c-15.201,4.052-30.381,8.19-45.578,12.255c-0.807,0.217-1.781,0.124-2.604-0.095
		c-14.802-3.959-29.585-7.992-44.402-11.897c-1.803-0.475-2.257-1.389-2.39-3.042c-0.721-8.96-1.517-17.917-2.303-26.872
		c-0.156-1.763-0.377-3.52-0.563-5.212c-14.67,0-29.093,0-43.598,0c0.121,1.616,0.211,3.089,0.345,4.56
		c0.914,10.058,1.847,20.114,2.754,30.174c0.965,10.691,1.926,21.383,2.839,32.08c0.083,0.987,0.473,1.343,1.371,1.574
		c2.762,0.719,5.499,1.529,8.248,2.297c26.057,7.28,52.114,14.561,78.177,21.818c0.684,0.191,1.496,0.338,2.153,0.153
		c12.666-3.513,25.316-7.094,37.976-10.633c16.016-4.481,32.036-8.955,48.069-13.369c1.426-0.391,1.95-1.099,2.061-2.474
		c0.418-5.213,0.9-10.422,1.354-15.63c0.45-5.213,0.89-10.423,1.35-15.632c0.496-5.576,1.019-11.152,1.515-16.728
		c0.459-5.104,0.898-10.208,1.356-15.312c0.494-5.523,1.009-11.045,1.502-16.567c0.463-5.158,0.903-10.316,1.364-15.471
		c0.488-5.472,0.995-10.943,1.496-16.413c0.382-4.155,0.777-8.306,1.145-12.463c0.197-2.284,0.344-4.571,0.527-7.019
		c-52.747,0-105.188,0-157.757,0c-1.309-14.681-2.605-29.226-3.914-43.89c1.09,0,1.774,0,2.458,0
		c20.12,0.012,40.239,0.032,60.356,0.035c33.466,0.005,66.927,0,100.389,0c0.425,0,0.851-0.028,1.271,0.005
		c0.841,0.065,1.215-0.228,1.273-1.145c0.157-2.583,0.405-5.161,0.639-7.739c0.926-9.993,1.864-19.985,2.78-29.979
		c0.144-1.559,0.215-3.124,0.325-4.786c-72.397,0-144.634,0-217.075,0c3.902,43.714,7.792,87.285,11.693,130.99
		C713.531,299.063,763.335,299.063,813.215,299.063z"/>
	<path opacity="0.6" fill="#FFFFFF" enable-background="new    " d="M837.994,0c-0.053,0.68-0.151,1.36-0.151,2.04
		c-0.007,20.593-0.007,41.185-0.007,61.777c0,0.681,0,1.362,0,2.156c-7.285,0-14.441,0-21.769,0c0-10.68,0-21.333,0-31.986
		c-0.139-0.053-0.273-0.106-0.41-0.159c-4.947,7.672-9.896,15.344-14.982,23.231c-5.07-7.86-10.023-15.539-14.98-23.219
		c-0.112,0.034-0.225,0.068-0.338,0.101c0,10.641,0,21.281,0,32.033c-7.188,0-14.196,0-21.318,0c-0.036-0.378-0.112-0.78-0.112-1.18
		c-0.006-21.334-0.006-42.667-0.002-64.001c0-0.264,0.025-0.527,0.042-0.792c7.625,0,15.25,0,22.875,0
		c0.097,0.241,0.161,0.502,0.295,0.72c4.354,7.174,8.714,14.345,13.083,21.511c0.17,0.278,0.449,0.488,0.773,0.832
		c3.49-5.736,6.904-11.316,10.283-16.917c1.219-2.021,2.352-4.096,3.524-6.146C822.531,0,830.261,0,837.994,0z"/>
	<path opacity="0.6" fill="#FFFFFF" enable-background="new    " d="M683.903,0c0,21.961,0,43.923,0,65.985
		c-7.322,0-14.501,0-21.86,0c0-7.279,0-14.603,0-22.032c-6.827,0-13.472,0-20.302,0c0,7.285,0,14.609,0,22.032
		c-7.359,0-14.537,0-21.958,0c0-0.646,0-1.311,0-1.977c0-20.649,0-41.298-0.003-61.947c0-0.688-0.035-1.375-0.055-2.062
		c7.308,0,14.615,0,21.922,0c0,7.28,0,14.559,0,21.822c6.909,0,13.553,0,20.333,0c0-7.34,0-14.581,0-21.822
		C669.289,0,676.596,0,683.903,0z"/>
	<path opacity="0.6" fill="#FFFFFF" enable-background="new    " d="M754.117,0c0,7.243,0,14.485,0,21.905
		c-6.478,0-12.848,0-19.334,0c0,14.767,0,29.358,0,44.063c-7.335,0-14.552,0-21.942,0c0-14.624,0-29.252,0-44.006
		c-6.5,0-12.832,0-19.407,0c0-7.402,0-14.683,0-21.963C713.662,0,733.89,0,754.117,0z"/>
	<path opacity="0.6" fill="#FFFFFF" enable-background="new    " d="M870.72,0c0.008,14.03,0.02,28.061,0.031,42.09
		c0.003,0.625,0,1.249,0,2.013c10.328,0,20.522,0,30.854,0c0,7.35,0,14.562,0,21.876c-17.502,0-35.003,0-52.746,0
		c0-0.642,0-1.308,0-1.973c0-20.648,0.002-41.297-0.002-61.945c0-0.688-0.041-1.375-0.061-2.061C856.103,0,863.41,0,870.72,0z"/>
</g>
<g opacity="0.6">
	<path fill="#FFFFFF" d="M116.684,813.425H82.105L41.352,510.855h41.167l17.701,157.252l0.823,9.881h3.294l1.234-9.881
		l18.936-157.252h32.109l18.937,157.252l1.235,9.881h3.293l0.823-9.881l17.701-157.252h41.167l-40.754,302.569h-34.579
		l-20.585-143.258l-2.469-17.7h-1.647l-2.469,17.7L116.684,813.425z"/>
	<path fill="#FFFFFF" d="M261.173,510.855h101.681v45.693h-57.221v79.45h41.166v48.575h-41.166v83.157h57.221v45.695H261.173
		V510.855z"/>
	<path fill="#FFFFFF" d="M387.55,813.425V510.855h39.108c26.345,0,46.929,4.938,60.515,17.701
		c13.584,12.761,20.582,32.521,20.582,62.571c0,14.41-1.235,25.111-5.763,34.991c-4.528,9.88-11.527,18.113-21.817,27.581
		c11.115,6.175,19.347,17.702,25.935,37.049c3.292,9.47,4.94,21.818,4.94,37.051c0,22.64-4.119,42.813-14.408,58.455
		c-10.292,15.644-27.994,25.936-54.34,27.17H387.55z M432.009,635.587c3.705,0,12.35,0.412,19.759-4.528
		c7.41-4.939,13.174-14.819,13.174-35.813s-5.763-30.875-13.174-35.814c-7.411-4.938-16.054-4.528-19.759-4.528V635.587z
		 M432.009,769.376c3.705,0,12.35,0.824,19.759-4.527c7.41-5.351,13.174-17.289,13.174-41.989c0-24.699-5.763-36.638-13.174-41.988
		c-7.41-5.353-16.054-4.53-19.759-4.53V769.376z"/>
	<path fill="#FFFFFF" d="M611.079,591.952c0-9.879-0.41-20.994-3.293-29.639c-2.88-8.233-7.409-13.997-14.408-13.997
		c-11.526,0.412-15.231,12.348-15.231,30.051c0,10.291,4.528,20.995,11.115,32.521c6.587,11.525,15.231,23.464,23.876,36.226
		c10.29,15.23,20.583,30.874,28.404,46.104c7.821,15.232,13.173,30.876,13.173,47.341c0,20.173-3.292,39.109-12.761,53.104
		c-9.468,13.996-24.7,23.055-48.986,23.055c-28.404,0-44.46-10.706-53.518-27.171c-9.056-16.468-11.113-38.283-11.113-60.925
		l43.636-4.119c0,12.762,0.412,25.523,3.704,34.992c2.883,9.88,7.823,16.468,17.291,16.468c13.173,0,18.113-13.999,18.113-33.345
		c0-9.879-4.94-21.407-11.527-33.345c-3.705-5.763-7.409-11.938-11.525-18.112c-8.646-12.351-18.115-26.348-27.993-41.578
		c-9.881-15.231-17.291-30.873-21.819-46.93c-2.469-7.821-3.707-16.055-3.707-24.288c0-16.466,3.707-34.169,13.174-47.753
		c9.468-13.173,23.876-22.641,44.873-23.052c26.757-0.412,42.4,10.703,51.045,26.758c8.644,16.467,11.115,36.638,11.115,53.515
		L611.079,591.952z"/>
	<path fill="#FFFFFF" d="M794.26,751.265c-0.411,12.348-2.882,23.463-7.409,32.931c-3.705,8.235-9.468,16.057-17.703,22.23
		c-8.231,6.586-19.347,10.291-34.168,10.291c-14.817,0-26.344-3.707-34.579-10.291c-8.234-6.174-13.584-13.997-17.289-22.23
		c-4.527-9.468-6.999-20.583-7.411-32.931V573.017c0.412-11.939,2.884-23.054,7.411-32.521c3.705-8.235,9.056-16.467,17.289-22.643
		c8.233-6.175,19.761-10.291,34.579-10.291c14.818,0,25.937,4.116,34.168,10.291c8.235,6.176,13.998,14.407,17.703,22.643
		c4.527,9.467,6.998,20.581,7.409,32.521V751.265z M749.801,573.017c0-8.233-1.648-13.997-5.763-18.937
		c-2.058-2.06-5.352-3.293-9.057-3.293c-7.821,0-11.525,5.762-13.174,11.114c-1.234,3.292-1.646,6.998-1.646,11.115v178.248
		c0,8.646,2.059,14.409,6.174,18.938c2.059,2.057,4.94,3.293,8.646,3.293c7.819,0,11.526-4.94,13.173-11.115
		c1.237-2.882,1.646-6.589,1.646-11.115V573.017L749.801,573.017z"/>
	<path fill="#FFFFFF" d="M939.983,709.688v41.577c-0.411,12.35-2.884,23.465-7.411,32.934c-3.706,8.232-9.468,16.056-17.7,22.229
		c-8.236,6.585-19.348,10.292-34.168,10.292s-26.348-3.707-34.58-10.292c-8.235-6.175-13.584-13.996-17.29-22.229
		c-4.529-9.469-6.998-20.584-7.411-32.934V573.017c0.413-11.939,2.882-23.054,7.411-32.521c3.706-8.235,9.055-16.467,17.29-22.643
		c8.232-6.175,19.758-10.291,34.58-10.291c14.817,0,25.932,4.116,34.168,10.291c8.232,6.176,13.994,14.407,17.7,22.643
		c4.527,9.467,7,20.581,7.411,32.521v41.576h-41.578v-41.576c0-8.233-2.058-13.997-6.587-18.937
		c-2.06-2.06-5.763-3.293-10.292-3.293c-7.82,0-11.525,5.762-13.582,11.114c-1.238,3.292-1.648,6.998-2.061,11.115v178.248
		c0.412,8.646,2.88,14.407,6.998,18.938c2.058,2.057,4.938,3.293,8.645,3.293c9.468,0,13.174-4.94,15.232-11.115
		c1.235-2.882,1.646-6.589,1.646-11.115v-41.577H939.983L939.983,709.688z"/>
	<path fill="#FFFFFF" d="M1011.194,510.855V616.65h1.648l2.058-4.938l37.05-100.856h43.222l-40.751,99.621l46.105,202.948h-43.225
		l-30.874-131.731l-1.235-6.175h-1.234l-2.472,6.175l-10.29,24.7v107.033h-44.459V510.855H1011.194z"/>
	<path fill="#FFFFFF" d="M1121.106,510.855h101.68v45.693h-57.22v79.45h41.167v48.575h-41.167v83.157h57.22v45.695h-101.68V510.855z
		"/>
	<path fill="#FFFFFF" d="M1231.84,556.549v-45.693h128.437v45.693h-41.988v256.876h-44.46V556.549H1231.84z"/>
	<path fill="#FFFFFF" d="M1451.25,591.952c0-9.879-0.412-20.994-3.292-29.639c-2.882-8.233-7.408-13.997-14.408-13.997
		c-11.526,0.412-15.231,12.348-15.231,30.051c0,10.291,4.527,20.995,11.112,32.521c6.589,11.525,15.235,23.464,23.877,36.226
		c10.292,15.23,20.582,30.874,28.406,46.104c7.82,15.232,13.172,30.876,13.172,47.341c0,20.173-3.292,39.109-12.761,53.104
		c-9.468,13.996-24.699,23.055-48.987,23.055c-28.404,0-44.461-10.706-53.516-27.171c-9.058-16.468-11.116-38.283-11.116-60.925
		l43.639-4.119c0,12.762,0.411,25.523,3.703,34.992c2.882,9.88,7.822,16.468,17.29,16.468c13.172,0,18.112-13.999,18.112-33.345
		c0-9.879-4.94-21.407-11.524-33.345c-3.706-5.763-7.411-11.938-11.527-18.112c-8.645-12.351-18.112-26.348-27.994-41.578
		c-9.879-15.231-17.288-30.873-21.815-46.93c-2.473-7.821-3.707-16.055-3.707-24.288c0-16.466,3.707-34.169,13.175-47.753
		c9.469-13.173,23.875-22.641,44.869-23.052c26.758-0.412,42.402,10.703,51.048,26.758c8.644,16.467,11.112,36.638,11.112,53.515
		L1451.25,591.952z"/>
</g>
</svg>
