<?xml version="1.0" encoding="utf-8"?>
<!-- Generator: Adobe Illustrator 16.0.0, SVG Export Plug-In . SVG Version: 6.00 Build 0)  -->
<!DOCTYPE svg PUBLIC "-//W3C//DTD SVG 1.1//EN" "http://www.w3.org/Graphics/SVG/1.1/DTD/svg11.dtd">
<svg version="1.1" id="Layer_5" xmlns="http://www.w3.org/2000/svg" xmlns:xlink="http://www.w3.org/1999/xlink" x="0px" y="0px"
	 width="102.074px" height="102px" viewBox="0 0 102.074 102" enable-background="new 0 0 102.074 102" xml:space="preserve">
<path opacity="0.6" fill="#FFFFFF" enable-background="new    " d="M77.625,32.358L58.317,51.1l-6.478-6.726l19.309-18.741
	L77.625,32.358z M71.436,21.85L48.135,44.466l9.966,10.346l23.301-22.667L71.436,21.85z M67.167,79.402H23.501V35.236h43.667V79.402
	L67.167,79.402z M74.333,29.236H16.667v56.666h57.667V29.236z M69.641,24.016l-4.842-4.747v-3.172h22.117v22.881h-2.898
	L69.641,24.016z M68.298,18.646l16.164,16.651V18.646H68.298z M79.384,34.156l2.018-2.011l-9.966-10.266l-2.012,1.924L79.384,34.156
	z M51.839,44.374l6.478,6.726L79.7,30.393l-6.509-6.72L51.839,44.374 M68.298,18.646l16.164,16.651V18.646H68.298"/>
</svg>
